<svg width="455" height="101" viewBox="0 0 455 101" fill="none" xmlns="http://www.w3.org/2000/svg">
<path d="M329.546 17.48C332.153 17.48 334.385 17.65 336.244 17.99C336.765 18.126 337.026 18.432 337.026 18.908V21.628C337.026 21.968 336.856 22.138 336.516 22.138H329.546C327.257 22.138 325.761 22.7273 325.058 23.906C324.378 25.1073 324.038 27.408 324.038 30.808C324.038 34.2533 324.378 36.5653 325.058 37.744C325.761 38.9227 327.257 39.512 329.546 39.512H336.516C336.856 39.512 337.026 39.682 337.026 40.022V42.776C337.026 43.2293 336.765 43.524 336.244 43.66C334.567 44 332.334 44.17 329.546 44.17C327.257 44.17 325.443 43.966 324.106 43.558C322.769 43.1273 321.681 42.3907 320.842 41.348C320.026 40.2827 319.448 38.9453 319.108 37.336C318.791 35.704 318.632 33.528 318.632 30.808C318.632 28.088 318.791 25.9233 319.108 24.314C319.448 22.682 320.026 21.3447 320.842 20.302C321.681 19.2593 322.769 18.534 324.106 18.126C325.443 17.6953 327.257 17.48 329.546 17.48ZM347.917 24.79C349.798 24.79 351.26 24.9373 352.303 25.232C353.368 25.504 354.23 26.014 354.887 26.762C355.544 27.4873 355.986 28.428 356.213 29.584C356.462 30.74 356.587 32.372 356.587 34.48C356.587 38.356 356.02 40.9513 354.887 42.266C353.754 43.5353 351.43 44.17 347.917 44.17C344.404 44.17 342.08 43.5353 340.947 42.266C339.814 40.9513 339.247 38.356 339.247 34.48C339.247 30.5813 339.814 27.9973 340.947 26.728C342.08 25.436 344.404 24.79 347.917 24.79ZM350.875 30.196C350.444 29.4933 349.458 29.142 347.917 29.142C346.376 29.142 345.39 29.4933 344.959 30.196C344.528 30.8533 344.313 32.2813 344.313 34.48C344.313 36.656 344.528 38.0953 344.959 38.798C345.39 39.478 346.376 39.818 347.917 39.818C349.458 39.818 350.444 39.478 350.875 38.798C351.328 38.0727 351.555 36.6333 351.555 34.48C351.555 32.3267 351.328 30.8987 350.875 30.196ZM379.017 24.756C381.76 24.756 383.652 25.266 384.695 26.286C385.76 27.2833 386.293 29.1873 386.293 31.998L386.259 43.456C386.259 43.8187 386.089 44 385.749 44H381.737C381.397 44 381.227 43.8187 381.227 43.456V34.242C381.204 33.29 381.182 32.5873 381.159 32.134C381.136 31.658 381.068 31.1933 380.955 30.74C380.842 30.2867 380.74 29.992 380.649 29.856C380.581 29.72 380.388 29.584 380.071 29.448C379.754 29.2893 379.482 29.21 379.255 29.21C379.028 29.1873 378.609 29.1647 377.997 29.142C377.022 29.142 376.104 29.21 375.243 29.346C375.538 30.2073 375.685 31.4087 375.685 32.95L375.651 43.456C375.651 43.8187 375.492 44 375.175 44H371.129C370.812 44 370.653 43.8187 370.653 43.456V33.086C370.653 31.25 370.426 30.128 369.973 29.72C369.701 29.4707 369.395 29.312 369.055 29.244C368.738 29.176 368.182 29.142 367.389 29.142H365.077V43.456C365.077 43.8187 364.907 44 364.567 44H360.555C360.215 44 360.045 43.8187 360.045 43.456V25.878C360.045 25.606 360.192 25.436 360.487 25.368C362.3 24.9827 364.476 24.79 367.015 24.79C369.554 24.79 371.582 25.1527 373.101 25.878C375.028 25.13 377 24.756 379.017 24.756ZM398.32 24.79C400.201 24.79 401.663 24.9373 402.706 25.232C403.771 25.504 404.632 26.014 405.29 26.762C405.947 27.4873 406.389 28.428 406.616 29.584C406.865 30.74 406.99 32.372 406.99 34.48C406.99 38.356 406.423 40.9513 405.29 42.266C404.156 43.5353 401.833 44.17 398.32 44.17C394.806 44.17 392.483 43.5353 391.35 42.266C390.216 40.9513 389.65 38.356 389.65 34.48C389.65 30.5813 390.216 27.9973 391.35 26.728C392.483 25.436 394.806 24.79 398.32 24.79ZM401.278 30.196C400.847 29.4933 399.861 29.142 398.32 29.142C396.778 29.142 395.792 29.4933 395.362 30.196C394.931 30.8533 394.716 32.2813 394.716 34.48C394.716 36.656 394.931 38.0953 395.362 38.798C395.792 39.478 396.778 39.818 398.32 39.818C399.861 39.818 400.847 39.478 401.278 38.798C401.731 38.0727 401.958 36.6333 401.958 34.48C401.958 32.3267 401.731 30.8987 401.278 30.196ZM326.418 62.514C327.733 62.514 328.957 62.6273 330.09 62.854C330.453 62.922 330.634 63.1373 330.634 63.5V66.322C330.634 66.6847 330.441 66.866 330.056 66.866H327.37C326.645 66.866 326.146 66.9567 325.874 67.138C325.602 67.3193 325.466 67.6707 325.466 68.192V69.994H329.614C329.954 69.994 330.09 70.1867 330.022 70.572L329.512 73.428C329.444 73.7453 329.251 73.904 328.934 73.904H325.466V88.456C325.466 88.8187 325.296 89 324.956 89H320.944C320.604 89 320.434 88.8187 320.434 88.456V73.904H318.224C317.839 73.904 317.646 73.734 317.646 73.394V70.504C317.646 70.164 317.839 69.994 318.224 69.994H320.434V67.308C320.434 65.2907 321.057 63.9533 322.304 63.296C323.301 62.7747 324.673 62.514 326.418 62.514ZM338.662 69.79C341.835 69.79 344 70.266 345.156 71.218C346.312 72.17 346.89 73.6433 346.89 75.638V87.402C346.89 87.946 346.641 88.2973 346.142 88.456C344.079 88.932 341.507 89.17 338.424 89.17C336.905 89.17 335.738 89.1133 334.922 89C334.129 88.8867 333.369 88.6373 332.644 88.252C331.284 87.504 330.593 85.8493 330.57 83.288C330.593 81.112 331.148 79.6387 332.236 78.868C333.347 78.0973 335.115 77.712 337.54 77.712H341.858V76.488C341.858 74.924 340.793 74.142 338.662 74.142H332.508C332.327 74.142 332.202 74.108 332.134 74.04C332.066 73.972 332.032 73.836 332.032 73.632V70.844C332.032 70.6627 332.055 70.538 332.1 70.47C332.168 70.402 332.304 70.3453 332.508 70.3C334.253 69.96 336.305 69.79 338.662 69.79ZM341.858 84.75V80.976H337.948C337.064 80.976 336.441 81.1347 336.078 81.452C335.738 81.7467 335.568 82.268 335.568 83.016C335.568 83.8093 335.772 84.3533 336.18 84.648C336.611 84.9427 337.37 85.09 338.458 85.09C339.954 85.09 341.087 84.9767 341.858 84.75ZM350.815 69.96H365.163C365.548 69.96 365.741 70.13 365.741 70.47V72.782C365.741 72.986 365.661 73.2013 365.503 73.428L357.139 84.648H365.605C365.99 84.648 366.183 84.818 366.183 85.158V88.456C366.183 88.8187 365.99 89 365.605 89H350.441C350.033 89 349.829 88.8187 349.829 88.456V86.246C349.829 86.042 349.908 85.8267 350.067 85.6L358.703 74.21H350.815C350.429 74.21 350.237 74.04 350.237 73.7V70.47C350.237 70.13 350.429 69.96 350.815 69.96ZM377.232 69.79C380.587 69.79 382.808 70.4247 383.896 71.694C384.984 72.918 385.551 75.434 385.596 79.242V80.296C385.596 80.636 385.517 80.874 385.358 81.01C385.2 81.146 384.916 81.214 384.508 81.214H373.832C373.878 82.7327 374.138 83.7073 374.614 84.138C375.136 84.5913 376.156 84.818 377.674 84.818H383.692C384.032 84.818 384.202 84.988 384.202 85.328V88.15C384.202 88.4673 384.044 88.6487 383.726 88.694C382.14 89.0113 379.975 89.17 377.232 89.17C373.787 89.17 371.509 88.524 370.398 87.232C369.265 85.9173 368.698 83.3333 368.698 79.48C368.698 75.5813 369.265 72.9973 370.398 71.728C371.509 70.436 373.787 69.79 377.232 69.79ZM377.232 74.142C375.94 74.142 375.045 74.4027 374.546 74.924C374.07 75.4453 373.821 76.4427 373.798 77.916H380.53C380.508 76.4427 380.258 75.4453 379.782 74.924C379.329 74.4027 378.479 74.142 377.232 74.142ZM407.738 69.756C410.48 69.756 412.373 70.266 413.416 71.286C414.481 72.2833 415.014 74.1873 415.014 76.998L414.98 88.456C414.98 88.8187 414.81 89 414.47 89H410.458C410.118 89 409.948 88.8187 409.948 88.456V79.242C409.925 78.29 409.902 77.5873 409.88 77.134C409.857 76.658 409.789 76.1933 409.676 75.74C409.562 75.2867 409.46 74.992 409.37 74.856C409.302 74.72 409.109 74.584 408.792 74.448C408.474 74.2893 408.202 74.21 407.976 74.21C407.749 74.1873 407.33 74.1647 406.718 74.142C405.743 74.142 404.825 74.21 403.964 74.346C404.258 75.2073 404.406 76.4087 404.406 77.95L404.372 88.456C404.372 88.8187 404.213 89 403.896 89H399.85C399.532 89 399.374 88.8187 399.374 88.456V78.086C399.374 76.25 399.147 75.128 398.694 74.72C398.422 74.4707 398.116 74.312 397.776 74.244C397.458 74.176 396.903 74.142 396.11 74.142H393.798V88.456C393.798 88.8187 393.628 89 393.288 89H389.276C388.936 89 388.766 88.8187 388.766 88.456V70.878C388.766 70.606 388.913 70.436 389.208 70.368C391.021 69.9827 393.197 69.79 395.736 69.79C398.274 69.79 400.303 70.1527 401.822 70.878C403.748 70.13 405.72 69.756 407.738 69.756ZM427.04 69.79C428.922 69.79 430.384 69.9373 431.426 70.232C432.492 70.504 433.353 71.014 434.01 71.762C434.668 72.4873 435.11 73.428 435.336 74.584C435.586 75.74 435.71 77.372 435.71 79.48C435.71 83.356 435.144 85.9513 434.01 87.266C432.877 88.5353 430.554 89.17 427.04 89.17C423.527 89.17 421.204 88.5353 420.07 87.266C418.937 85.9513 418.37 83.356 418.37 79.48C418.37 75.5813 418.937 72.9973 420.07 71.728C421.204 70.436 423.527 69.79 427.04 69.79ZM429.998 75.196C429.568 74.4933 428.582 74.142 427.04 74.142C425.499 74.142 424.513 74.4933 424.082 75.196C423.652 75.8533 423.436 77.2813 423.436 79.48C423.436 81.656 423.652 83.0953 424.082 83.798C424.513 84.478 425.499 84.818 427.04 84.818C428.582 84.818 429.568 84.478 429.998 83.798C430.452 83.0727 430.678 81.6333 430.678 79.48C430.678 77.3267 430.452 75.8987 429.998 75.196ZM446.478 69.79C448.427 69.79 450.218 69.9373 451.85 70.232C452.213 70.3227 452.394 70.504 452.394 70.776V73.36C452.394 73.7227 452.201 73.904 451.816 73.904H445.696C444.359 73.904 443.69 74.312 443.69 75.128V75.468C443.69 76.148 444.234 76.6693 445.322 77.032L449.674 78.562C450.989 79.0153 451.907 79.65 452.428 80.466C452.972 81.2593 453.244 82.3247 453.244 83.662V84.206C453.244 85.9967 452.643 87.2773 451.442 88.048C450.263 88.796 448.45 89.17 446.002 89.17C443.373 89.17 441.027 89.0567 438.964 88.83C438.579 88.83 438.386 88.66 438.386 88.32V85.566C438.386 85.226 438.579 85.056 438.964 85.056H445.934C446.841 85.056 447.453 84.9767 447.77 84.818C448.11 84.6593 448.28 84.3533 448.28 83.9V83.594C448.28 83.254 448.144 82.9707 447.872 82.744C447.623 82.4947 447.135 82.2453 446.41 81.996L442.228 80.5C439.916 79.7293 438.76 78.0067 438.76 75.332V74.686C438.76 72.9633 439.395 71.7167 440.664 70.946C441.933 70.1753 443.871 69.79 446.478 69.79Z" fill="white"/>
<g clip-path="url(#clip0)">
<path d="M142.364 34.4036C142.364 56.2888 134.344 60.7285 110.597 60.7285H97.1532V87.2502C97.1532 88.6552 96.825 88.983 95.5266 88.983H81.7547C80.4516 88.983 80.1281 88.6599 80.1281 87.2502V9.27292C80.1281 8.07868 80.4516 7.86793 81.7547 7.75553C91.2938 6.88911 101.705 6.56128 110.597 6.56128C134.344 6.56128 142.364 12.7526 142.364 34.4036ZM97.1532 21.4027V47.6293H108.872C121.772 47.6293 125.138 45.8965 125.138 34.8485C125.138 24.0113 121.772 21.4121 108.872 21.4121L97.1532 21.4027Z" fill="white"/>
<path d="M182.002 28.9664C183.192 29.2896 183.736 29.7251 183.736 31.1301V40.0284C183.736 41.115 183.084 41.6535 181.889 41.6535H171.698C166.073 41.6535 164.109 42.5199 164.109 47.1798V87.2644C164.109 88.4539 163.566 88.9972 162.483 88.9972H149.573C148.491 88.9972 147.947 88.4539 147.947 87.2644V43.0492C147.947 29.3973 157.706 27.7769 167.573 27.7769C170.723 27.7769 178.205 28.1 182.002 28.9664Z" fill="white"/>
<path d="M242.855 58.1105C242.855 82.8057 237.755 88.983 215.198 88.983C192.755 88.983 187.542 82.8057 187.542 58.1105C187.542 33.2889 192.75 27.2334 215.198 27.2334C237.731 27.2334 242.855 33.2983 242.855 58.1105ZM203.709 58.1105C203.709 71.7577 205.336 75.1157 215.203 75.1157C225.178 75.1157 226.805 71.7577 226.805 58.1105C226.805 44.4633 225.178 41.1007 215.203 41.1007C205.312 41.1007 203.686 44.4586 203.686 58.1105H203.709Z" fill="white"/>
<path d="M296.761 28.3153C297.952 28.3153 298.603 28.8585 298.603 29.9404V37.3072C298.584 38.0589 298.317 38.7833 297.844 39.3679L271.172 75.1157H298.167C299.358 75.1157 300.009 75.659 300.009 76.7408V87.2502C300.009 88.4397 299.358 88.983 298.167 88.983H249.797C248.498 88.983 247.847 88.4397 247.847 87.2502V80.1924C247.851 79.4394 248.12 78.7118 248.606 78.1364L276.136 41.8594H250.992C249.689 41.8594 249.145 41.3162 249.145 40.2343V29.931C249.145 28.8492 249.689 28.3059 250.992 28.3059L296.761 28.3153Z" fill="white"/>
<path d="M34.1437 0.271528L56.0719 12.9165C56.3773 13.0941 56.6308 13.3487 56.807 13.6548C56.9832 13.961 57.0759 14.3079 57.0759 14.661C57.0759 15.0141 56.9832 15.3611 56.807 15.6672C56.6308 15.9733 56.3773 16.2279 56.0719 16.4056L34.1437 29.0505C33.8375 29.2272 33.49 29.3202 33.1364 29.3203C32.7827 29.3204 32.4353 29.2275 32.1289 29.051C31.8225 28.8744 31.5681 28.6205 31.391 28.3146C31.214 28.0087 31.1206 27.6617 31.1203 27.3083V2.0184C31.1212 1.66521 31.2149 1.31844 31.3919 1.01274C31.569 0.707029 31.8232 0.453086 32.1292 0.276273C32.4352 0.0994601 32.7823 0.00596577 33.1358 0.00513257C33.4893 0.00429937 33.8369 0.0961595 34.1437 0.271528Z" fill="white"/>
<path d="M26.2453 59.169H2.74217C2.47708 59.1696 2.21448 59.118 1.96939 59.0171C1.7243 58.9161 1.50154 58.7679 1.31388 58.5808C1.12622 58.3938 0.977331 58.1716 0.875743 57.9269C0.774155 57.6823 0.721862 57.42 0.721863 57.1552V33.6683C0.726919 33.2717 0.848806 32.8854 1.0723 32.5576C1.2958 32.2298 1.611 31.9751 1.97855 31.8252C2.34609 31.6753 2.74968 31.637 3.13892 31.7149C3.52816 31.7928 3.8858 31.9836 4.16718 32.2633L27.6984 55.7315C27.982 56.0148 28.1745 56.3762 28.2514 56.7694C28.3282 57.1626 28.2859 57.5698 28.1299 57.9389C27.9739 58.308 27.7112 58.6222 27.3755 58.8413C27.0398 59.0604 26.6463 59.1745 26.2453 59.169Z" fill="#593493"/>
<path d="M26.25 61.4592H2.73749C1.62429 61.4592 0.721863 62.3609 0.721863 63.4731V86.9646C0.721863 88.0768 1.62429 88.9784 2.73749 88.9784H26.25C27.3632 88.9784 28.2656 88.0768 28.2656 86.9646V63.4731C28.2656 62.3609 27.3632 61.4592 26.25 61.4592Z" fill="#593493"/>
<path d="M14.4984 0.182617H14.4937C6.48907 0.182617 0 6.6659 0 14.6634V14.6681C0 22.6657 6.48907 29.1489 14.4937 29.1489H14.4984C22.5031 29.1489 28.9922 22.6657 28.9922 14.6681V14.6634C28.9922 6.6659 22.5031 0.182617 14.4984 0.182617Z" fill="#593493"/>
<path d="M32.7375 59.1643C39.2919 58.6477 45.447 55.8126 50.097 51.1686C54.7469 46.5245 57.5867 40.3759 58.1063 33.8276C58.1269 33.5505 58.0901 33.2723 57.9981 33.0101C57.9062 32.748 57.7611 32.5076 57.5719 32.3041C57.3827 32.1005 57.1535 31.9382 56.8986 31.8272C56.6437 31.7163 56.3687 31.6591 56.0906 31.6592H32.5828C32.0482 31.6592 31.5356 31.8714 31.1576 32.249C30.7796 32.6267 30.5672 33.1389 30.5672 33.673V57.1505C30.5671 57.4283 30.6243 57.7031 30.7354 57.9577C30.8465 58.2124 31.0089 58.4414 31.2127 58.6304C31.4164 58.8194 31.657 58.9644 31.9193 59.0563C32.1817 59.1482 32.4603 59.1849 32.7375 59.1643Z" fill="#593493"/>
</g>
<defs>
<clipPath id="clip0">
<rect width="300" height="88.9831" fill="white"/>
</clipPath>
</defs>
</svg>
